<?xml version="1.0" encoding="UTF-8"?>
<!DOCTYPE svg PUBLIC "-//W3C//DTD SVG 1.1//EN" "http://www.w3.org/Graphics/SVG/1.1/DTD/svg11.dtd">
<!-- Creator: CorelDRAW X7 -->
<svg xmlns="http://www.w3.org/2000/svg" xml:space="preserve" width="99mm" height="138mm" version="1.1" style="shape-rendering:geometricPrecision; text-rendering:geometricPrecision; image-rendering:optimizeQuality; fill-rule:evenodd; clip-rule:evenodd"
viewBox="0 0 9900 13800"
 xmlns:xlink="http://www.w3.org/1999/xlink">
 <defs>
  <style type="text/css">
   <![CDATA[
    .fil1 {fill:#FEFEFE}
    .fil2 {fill:#2B2A29}
    .fil0 {fill:#FEFEFE;fill-rule:nonzero}
   ]]>
  </style>
 </defs>
 <g id="Layer_x0020_1">
  <metadata id="CorelCorpID_0Corel-Layer"/>
  <g id="_808968352">
   <path class="fil0" d="M308 11807l-308 1448 623 0c300,0 503,-131 563,-414 34,-167 -22,-276 -135,-332 113,-60 199,-161 229,-302 55,-259 -76,-400 -357,-400l-615 0zm259 579l66 -313 163 0c88,0 125,54 103,156 -21,99 -81,157 -169,157l-163 0zm-129 601l71 -329 168 0c107,0 153,44 129,164 -26,117 -92,165 -199,165l-169 0zm1590 -788l-163 758c-36,26 -76,40 -110,40 -68,0 -89,-36 -77,-96l151 -702c0,0 -60,-16 -181,-16 -120,0 -185,16 -185,16l-154 724c-39,177 24,356 227,356 102,0 197,-20 281,-83l-4 22c-50,274 -175,270 -295,270 -115,0 -207,-46 -207,-46 -71,66 -115,142 -137,233 0,0 141,82 366,82 317,0 549,-157 635,-539l217 -1019c0,0 -62,-16 -181,-16 -116,0 -183,16 -183,16zm927 254l195 0c0,0 24,-53 40,-129 18,-80 14,-127 14,-127l-195 0 50 -235c-122,-12 -275,6 -377,50l-39 185 -138 0c0,0 -24,47 -43,129 -16,76 -12,127 -12,127l139 0 -90 422c-63,291 24,400 309,400 75,0 147,-8 215,-24 0,0 24,-43 38,-113 21,-96 2,-143 2,-143 0,0 -44,10 -92,10 -86,0 -129,-28 -105,-136l89 -416zm1136 369c0,0 38,-92 68,-229 60,-289 -94,-430 -352,-430 -301,0 -508,151 -589,525 -82,384 55,587 396,587 252,0 374,-99 374,-99 16,-92 -16,-197 -60,-241 0,0 -93,48 -207,48 -103,0 -173,-34 -153,-161l523 0zm-248 -267c-4,20 -8,40 -14,60l-221 0c42,-162 103,-199 165,-199 68,0 87,59 70,139zm825 195l191 0c313,0 518,-137 582,-440 65,-304 -68,-503 -381,-503l-573 0 -304 1430c0,0 66,18 189,18 119,0 193,-18 193,-18l103 -487zm62 -289l78 -366 135 0c100,0 147,58 121,183 -27,122 -99,183 -199,183l-135 0zm1469 -264l-34 81c-36,-77 -104,-115 -225,-115 -239,0 -390,117 -484,513 -99,410 26,599 259,599 120,0 203,-46 271,-117l0 81c0,0 55,16 159,16 103,0 175,-16 175,-16l221 -1040c0,0 -62,-16 -173,-16 -112,0 -169,14 -169,14l0 0zm-102 372l-65 306c-20,68 -66,122 -136,122 -93,0 -119,-62 -73,-271 51,-223 99,-285 191,-285 69,0 91,56 83,128l0 0zm1485 -74c47,-213 -28,-332 -231,-332 -102,0 -203,50 -287,113l0 -77c0,0 -45,-16 -161,-16 -121,0 -185,16 -185,16l-221 1040c0,0 60,16 179,16 116,0 185,-16 185,-16l160 -758c39,-26 77,-40 111,-40 68,0 88,36 76,98l-148 700c0,0 56,16 179,16 120,0 186,-16 186,-16l157 -744zm915 -730l-105 501c-46,-65 -116,-103 -223,-103 -239,0 -402,125 -488,535 -87,410 28,577 253,577 121,0 213,-46 281,-117l0 81c0,0 55,16 159,16 103,0 175,-16 175,-16l314 -1476c0,0 -69,-16 -179,-16 -113,0 -187,18 -187,18zm-171 804l-64 306c-20,68 -67,122 -137,122 -92,0 -121,-66 -74,-271 50,-223 100,-285 193,-285 68,0 90,56 82,128l0 0zm1232 -372l-34 81c-36,-77 -104,-115 -225,-115 -239,0 -390,117 -484,513 -99,410 26,599 259,599 120,0 203,-46 271,-117l0 81c0,0 54,16 159,16 103,0 175,-16 175,-16l221 -1040c0,0 -62,-16 -173,-16 -112,0 -169,14 -169,14l0 0zm-102 372l-65 306c-20,68 -66,122 -136,122 -93,0 -119,-62 -73,-271 51,-223 99,-285 191,-285 69,0 91,56 83,128l0 0z"/>
   <g>
    <path class="fil1" d="M3406 3197c-1332,569 -3495,3708 -706,5795 545,409 1567,489 2363,227 1058,-348 2628,-1633 3002,-2949 287,-172 441,-441 570,-792 147,-400 263,-907 309,-1339 46,-432 22,-790 -53,-1121 -75,-332 -200,-637 -375,-908 -175,-272 -399,-509 -615,-702 -216,-193 -425,-342 -632,-450 -208,-108 -414,-174 -618,-200 -205,-25 -408,-9 -663,30 -256,38 -563,99 -880,280 -317,181 -643,481 -856,889 -146,278 -239,607 -259,980 -130,60 -316,145 -587,260z"/>
    <path class="fil2" d="M5059 9960c2153,5 3881,152 3881,332 0,184 -1786,333 -3990,333 -2203,0 -3990,-149 -3990,-333 0,-68 245,-131 666,-184 33,22 68,42 104,60 386,193 855,117 1168,-161 169,-8 346,-16 530,-22 123,184 286,338 488,418 417,163 907,-15 1123,-406 7,-12 13,-25 20,-37zm-2201 -4539c-2,260 7,570 138,888 185,453 744,940 1193,1114 321,124 732,167 1017,-9 285,-176 445,-571 284,-930 -139,-308 -515,-589 -902,-758 -38,-168 -95,-333 -163,-481 -198,-427 -496,-710 -769,-770 -272,-59 -519,105 -649,292 -131,186 -146,395 -149,654zm4818 -3912c-21,22 -27,39 -24,67 2,28 14,67 37,95 23,28 58,45 95,45 38,1 79,-14 106,-41 27,-28 41,-69 19,-112 -23,-42 -82,-87 -129,-96 -48,-9 -83,19 -104,42zm-2190 672c-21,22 -27,39 -25,68 3,28 15,67 38,96 23,28 59,45 97,46 38,1 79,-14 107,-42 27,-29 41,-70 18,-113 -23,-43 -82,-89 -130,-97 -48,-9 -84,19 -105,42zm1702 -1065c-101,164 -187,393 -174,593 16,239 173,437 376,566 204,128 453,187 641,103 113,-50 204,-152 268,-272 23,33 46,66 68,100 82,127 152,261 210,402 59,142 106,292 141,449 36,156 59,319 68,493 9,174 4,362 -18,570 -23,211 -62,440 -114,664 -52,225 -115,443 -185,632 -68,184 -142,343 -240,472 -92,121 -207,217 -362,286 -171,75 -390,121 -639,127 -239,6 -500,-24 -767,-97 -289,-80 -585,-210 -860,-387 -254,-163 -491,-367 -688,-608 -195,-239 -352,-514 -470,-799 -131,-316 -215,-643 -253,-946 -35,-278 -31,-534 5,-766 38,-244 112,-465 214,-659 4,-8 8,-16 13,-24 33,-7 64,-17 91,-30 132,-59 186,-173 315,-333 88,-109 212,-239 281,-377 29,-19 58,-37 87,-53 145,-83 288,-138 424,-177 137,-40 271,-63 394,-82l0 -1c119,-18 228,-30 333,-36 98,-5 190,-3 282,9 92,11 184,31 275,61 94,30 188,70 283,120l1 0zm346 298c-48,62 -96,170 -90,263 6,92 66,168 145,218 78,50 174,73 247,40 73,-32 122,-120 138,-203 1,-3 1,-6 2,-8l0 -4 0 0 1 -4 0 0 0 -3 0 -1 1 -3 0 0 0 -4 0 0 0 -4 0 0 1 -3 0 -1 0 -3 0 -1 0 -3 0 0 0 -3 0 -1 0 -3 1 -1 0 -3 0 -1 0 -2 0 -4 0 0 0 -1 0 -1 -1 -3 0 0 0 -2 0 -2 0 -2 0 -1 0 -2 0 -1 0 -3 0 0 0 -2 -1 -2 0 0 0 -3 0 0 0 -2 0 -2 -1 -2 0 0 0 -3 0 -1 0 -1 -1 -2 0 -1 0 -2 0 -1 0 -1 0 -1 -1 -2 0 0 0 -3 -1 -1 0 -3 0 0 -1 -3 0 -1 -1 -3 0 0 -1 -4 0 0 -1 -3 0 0 -1 -4 0 0 -1 -3 0 0 -1 -4 0 0 -1 -3 0 0 -1 -3 0 -1 -1 -3 -1 0 -1 -3 0 -1 -1 -3 0 0 -1 -3 0 0 -2 -3 0 0 -1 -3 0 -1 -1 -1 -1 -2 0 0 -1 -3 0 0 -1 -2 0 0 -1 -2 -1 -2 -1 -2 0 0 -1 -2 -1 -2 -1 -1 0 -1 -2 -2 0 -1 -2 -2 0 -1 -1 -2 -1 -1 -1 -2 -1 -1 -1 -2 -1 -1 -1 -3 -1 -1 -1 -2 -1 -1 -2 -2 0 -1 -2 -3 0 0 -2 -3 0 0 -3 -3 0 0 -2 -3 0 0 -3 -3 0 -1 -2 -3c-55,-67 -148,-125 -218,-146l-2 -1 -1 0 -2 0 -1 -1 -1 0 -3 -1 -1 0 -2 0 0 0 -3 -1 0 0 -2 0 -1 -1 -1 0 -2 0 0 0 -3 -1 0 0 -1 0 -2 0 0 -1 -1 0 -2 0 0 0 -1 0 -2 0 0 0 -3 -1 0 0 -2 0 -1 0 -1 0 -2 0 0 0 -2 0 -1 0 0 0 -2 -1 -1 0 -1 0 -1 0 -1 0 -2 0 0 0 -3 0 0 0 -2 0 -1 1 0 0 -2 0 -1 0 -1 0 -2 0 -1 0 -1 0 -1 0 -2 1 -2 0 0 0 -2 0 0 0 -1 1 0 0 -2 0 0 0 -2 0 -2 1 0 0 -2 0 -1 1c-6,1 -12,4 -17,6l0 0 -2 1 0 0c-2,1 -3,2 -5,2l0 1 -2 0 -1 1c-3,2 -6,4 -9,6 -15,10 -29,25 -44,44zm-2568 276c-139,149 -180,261 -163,447 18,186 94,446 249,632 154,187 386,299 637,306 251,6 522,-94 704,-280 182,-185 275,-456 124,-741 -151,-285 -545,-585 -860,-642 -315,-57 -552,129 -691,278zm477 376c-46,50 -60,87 -54,150 6,62 31,149 83,211 52,63 129,100 213,102 84,2 175,-31 236,-93 61,-62 92,-153 41,-248 -50,-96 -182,-196 -287,-215 -106,-19 -185,43 -232,93zm-4237 5850c-65,304 -129,669 -53,1074 76,405 292,850 651,1029 359,178 862,92 1125,-299 64,-95 114,-208 150,-333 93,33 190,61 291,84 97,322 306,657 608,776 312,123 724,14 915,-331 75,-137 116,-311 128,-499 33,-10 65,-19 97,-30l0 0 13 -4 0 0c702,-235 1614,-859 2279,-1630 94,-109 182,-220 265,-334 43,31 89,60 139,87 253,140 590,223 848,108 258,-114 436,-425 342,-742 -72,-245 -306,-493 -572,-674 28,-31 55,-63 80,-96 121,-159 210,-347 289,-563 77,-208 144,-441 199,-675 55,-240 97,-483 121,-706 24,-225 29,-432 19,-627 -10,-195 -36,-378 -76,-552 -39,-175 -93,-344 -160,-507 -67,-161 -146,-315 -239,-458 -87,-135 -184,-260 -285,-376 -115,-131 -238,-252 -361,-362 -115,-102 -226,-192 -335,-269 -102,-73 -204,-137 -307,-192 6,-99 -10,-197 -53,-289 -71,-152 -216,-288 -380,-376 -165,-88 -349,-127 -518,-98 -169,30 -323,127 -400,240 -72,104 -77,222 -94,325 -125,19 -263,45 -410,87 -136,39 -278,92 -421,166 -76,-130 -213,-242 -357,-298 -218,-84 -452,-40 -641,46 -188,86 -331,213 -426,360 -94,147 -140,313 -83,495 56,183 214,383 397,480 18,9 35,18 53,25 -92,200 -161,423 -198,666 -9,57 -17,116 -22,176 -121,55 -279,126 -487,215 -418,178 -908,587 -1314,1130 -346,462 -635,1024 -772,1625 -125,550 -123,1134 76,1707 -52,124 -87,263 -121,419zm1941 1119c34,-311 8,-651 -61,-948 -129,-548 -411,-952 -715,-1088 -280,-124 -579,-22 -780,140 -102,-427 -87,-858 6,-1269 125,-552 391,-1068 709,-1493 370,-493 805,-861 1170,-1017 131,-56 243,-105 338,-147 3,96 11,194 24,294 41,333 134,692 278,1039 131,316 305,622 523,888 220,269 485,497 771,681 306,197 635,342 957,430 303,84 600,118 870,111 188,-5 365,-30 523,-71 -148,323 -364,641 -619,936 -625,726 -1473,1309 -2122,1526l0 -1 -12 4 0 1c-379,125 -814,167 -1219,128 -231,-22 -450,-70 -641,-144zm3970 -6606c75,-18 150,-27 206,-24 61,4 103,21 132,49l0 0c29,28 43,66 49,110l0 0c6,45 5,98 -10,150 -13,44 -36,87 -72,124 -40,41 -96,73 -158,94 -60,20 -126,28 -190,21 -64,-7 -126,-29 -176,-60 -54,-34 -96,-77 -115,-124 -21,-50 -17,-102 10,-151 25,-44 69,-85 129,-118 55,-31 126,-55 195,-71zm-960 2073c8,-86 19,-177 37,-277 18,-101 44,-214 92,-327 48,-116 119,-231 226,-332 93,-89 214,-166 344,-232 157,-78 328,-141 484,-188 143,-44 274,-75 393,-90 126,-16 240,-15 343,6 102,21 192,61 269,117 80,58 145,132 196,215 48,80 82,168 103,269 19,97 25,207 16,331 -9,119 -31,252 -65,386 -34,137 -79,278 -133,412 -52,133 -113,257 -186,371 -75,116 -162,220 -266,307 -102,85 -219,153 -344,204l0 0c-130,54 -270,89 -408,106 -134,17 -266,15 -387,-3 -124,-19 -237,-55 -332,-108 -83,-46 -151,-106 -206,-172l0 0 0 0 -1 0 0 -1 0 0 0 0 0 0 0 0 0 -1 -1 0 0 0 0 0 0 0 0 -1 -1 0 0 0 0 0 0 -1 0 0 -1 0 0 0 0 0 0 0 0 -1 0 0 0 0 -1 0 0 -1 0 0 0 0 0 0 -1 -1 0 0 0 0 0 0 0 0 0 -1 0 0 -1 0 0 0 0 0 0 -1 0 0 -1 0 0 0 0 0 0 -1 0 0 -1 0 0 -1 0 0 0 0 0 0 0 0 -1 -1 0 0 0 0 0 0 0 0 0 -1 -1 0 0 0 0 0 0 -1 0 0 -1 0 0 0 -1 -2 -1 -1 -1 -1 0 0 -1 -2 -1 -1 -1 -1 0 -1 -2 -2 0 -1 0 0 -1 -1 -2 -1 0 -2 -1 0 -1 -1 -1 -2 0 0 -1 -1 -1 -2 -1 -1 0 0 -1 -1 -1 -2 -1 -1 0 0 -1 -2 -1 -1 -1 -1 0 -1 -1 -1 -1 -1 0 -1 -1 -1 -1 -1 -1 -2 0 0 -1 -1 -1 -2 -1 -1 0 0 -1 -2 -1 -1 0 -1 -1 0 -1 -2 -1 -1 0 -1 -4 -5 -1 -2 0 0 -1 -1 -1 -2 -1 -3 -1 -1 -2 -3 -1 -1 -1 -1 0 -1 -1 -1 -1 -2 0 0 -1 -1 -1 -2 0 -1 -1 0 0 -2 -1 -1 -1 -1 0 -1 -1 -1 -1 -2 0 0 -1 -1 -1 -2 -1 -1 0 0 0 -2 -1 -1c-31,-54 -55,-111 -73,-167 -25,-82 -37,-163 -42,-244 -5,-78 -3,-156 0,-235 3,-78 6,-158 13,-242zm265 724c30,-15 63,-26 98,-33 148,-28 291,34 364,146 51,-79 136,-139 240,-158 125,-24 247,17 325,97 43,-105 142,-188 268,-212 62,-12 123,-8 178,9 29,-128 138,-235 284,-263 15,-3 30,-5 45,-6 -41,96 -87,186 -140,268 -63,98 -136,186 -223,258 -83,69 -180,125 -282,167l0 0c-111,46 -228,76 -342,90 -111,13 -220,12 -320,-3 -96,-15 -183,-42 -253,-81 -65,-37 -118,-84 -159,-137 -35,-44 -62,-92 -83,-142zm1926 -1729c-41,26 -89,44 -140,52 -122,18 -238,-23 -314,-101 -43,111 -149,199 -283,220 -101,15 -197,-10 -270,-63 -38,120 -148,217 -290,239 -72,11 -143,1 -204,-25 -22,140 -141,258 -299,282 -35,5 -70,6 -104,1 13,-48 29,-96 49,-144 39,-93 95,-184 179,-264 76,-72 178,-137 289,-193 142,-71 300,-129 444,-173 129,-39 246,-66 351,-80 98,-13 186,-12 261,3 70,14 131,42 183,79 58,42 106,97 144,160 1,3 3,5 4,7z"/>
   </g>
  </g>
 </g>
</svg>
